<svg width="24" height="24" viewBox="0 0 24 24" fill="none" xmlns="http://www.w3.org/2000/svg">
<path d="M18 10.4988V19.1238C18 19.37 17.9515 19.6138 17.8573 19.8413C17.7631 20.0688 17.625 20.2755 17.4508 20.4496C17.2767 20.6237 17.07 20.7618 16.8426 20.856C16.6151 20.9503 16.3713 20.9988 16.125 20.9988H4.87503C4.37775 20.9988 3.90084 20.8012 3.5492 20.4496C3.19757 20.098 3.00003 19.6211 3.00003 19.1238V7.87378C3.00003 7.3765 3.19757 6.89958 3.5492 6.54795C3.90084 6.19632 4.37775 5.99878 4.87503 5.99878H12.7257" stroke="#5AA02C" stroke-width="1.5" stroke-linecap="round" stroke-linejoin="round"/>
<path d="M15.7499 2.99976H20.9999V8.24975" stroke="#5AA02C" stroke-width="1.5" stroke-linecap="round" stroke-linejoin="round"/>
<path d="M10.5 13.4983L20.625 3.37329" stroke="#5AA02C" stroke-width="1.5" stroke-linecap="round" stroke-linejoin="round"/>
</svg>