<?xml version="1.0" encoding="utf-8"?>
<!-- Generator: Adobe Illustrator 26.2.0, SVG Export Plug-In . SVG Version: 6.00 Build 0)  -->
<svg version="1.1" id="레이어_1" xmlns="http://www.w3.org/2000/svg" xmlns:xlink="http://www.w3.org/1999/xlink" x="0px"
	 y="0px" viewBox="0 0 225 44" style="enable-background:new 0 0 225 44;" xml:space="preserve">
<style type="text/css">
	.st0{fill:#F5F5F5;}
	.st1{fill:url(#SVGID_1_);}
	.st2{fill:#9F9F9F;}
	.st3{fill:#FFFFFF;}
	.st4{fill:#AAAAAA;}
	.st5{fill:#D9D9D9;}
</style>
<g>
	<path class="st0" d="M42.4,9.4c-0.1-0.2-0.3-0.5-0.5-0.6c-0.1-0.1-0.2-0.2-0.3-0.2c-0.1,0-0.2,0.1-0.3,0.1
		c-3.8,3.2-8.5,5.5-13.4,6.5c-1.9,0.4-3.9,0.6-5.8,0.6c-2,0-3.9-0.2-5.8-0.6c-4.9-1-9.6-3.3-13.4-6.5C2.8,8.6,2.7,8.5,2.5,8.5
		S2.3,8.6,2.2,8.7C2.1,8.9,1.9,9.1,1.8,9.4c-0.1,0.2-0.1,0.4,0,0.6C1.8,10,1.9,10.1,2,10.2c1.7,1.7,3.5,3.3,5.2,5
		c1.8,1.8,3.4,3.7,4.6,5.9c2.1,4.2,2.9,9.3,2.9,14c0.8,0.2,4.2,0.3,7.4,1.8l0,0l0,0c3.2-1.5,6.6-1.6,7.4-1.8c0-4.7,0.8-9.8,2.9-14
		c1.1-2.3,2.8-4.2,4.5-5.9c1.7-1.7,3.5-3.3,5.2-5c0.1-0.1,0.2-0.2,0.3-0.3C42.5,9.7,42.5,9.5,42.4,9.4z M42.3,9.8
		c0,0.1-0.1,0.1-0.2,0.2c-0.5,0.4-1,0.9-1.5,1.4c-0.5,0.5-1,0.9-1.5,1.4c-2.8,2.6-5.1,4.7-6.9,8.2c-1.7,3.2-2.6,6.9-3,10.5
		c-0.1,1.1-0.1,2.2-0.1,3.3c-0.1,0-0.3,0-0.5,0.1c-1.4,0.2-4,0.6-6.5,1.8c-2.5-1.2-5.1-1.6-6.5-1.8c-0.2,0-0.4,0-0.5-0.1
		c0-1.1,0-2.2-0.1-3.4c-0.3-3.6-1.3-7.3-2.9-10.5c-1.9-3.5-4.2-5.6-6.9-8.2c-0.5-0.5-1-0.9-1.5-1.4c-0.5-0.4-1-0.9-1.5-1.4
		C2,10,1.9,9.9,1.9,9.8c0-0.1-0.1-0.1,0-0.3c0.1-0.2,0.2-0.4,0.4-0.6c0.1-0.1,0.2-0.1,0.2,0c0,0,0,0,0,0c4,3.3,8.8,7.2,13.7,8.2
		c1.9,0.4,3.9,0.6,5.9,0.6c2,0,4-0.2,5.9-0.6c4.9-1,9.7-4.9,13.7-8.2c0,0,0,0,0,0c0,0,0.1-0.1,0.2,0c0.2,0.2,0.3,0.5,0.4,0.6
		C42.4,9.7,42.4,9.8,42.3,9.8z"/>
	
		<radialGradient id="SVGID_1_" cx="1137.6272" cy="-2421.1655" r="551.4142" gradientTransform="matrix(3.160000e-02 0 0 -3.160000e-02 -14.0782 -53.8177)" gradientUnits="userSpaceOnUse">
		<stop  offset="0" style="stop-color:#C2C2C2"/>
		<stop  offset="1" style="stop-color:#E9E9E9"/>
	</radialGradient>
	<path class="st1" d="M41.9,8.9c-0.1-0.1-0.2-0.1-0.2,0c0,0,0,0,0,0c-4,3.3-8.8,7.2-13.7,8.2c-1.9,0.4-3.9,0.6-5.9,0.6
		c-2,0-4-0.2-5.9-0.6c-4.9-1-9.7-4.9-13.7-8.2c0,0,0,0,0,0c0,0-0.1-0.1-0.2,0C2.1,9.1,1.9,9.4,1.9,9.5c-0.1,0.2,0,0.3,0,0.3
		c0,0.1,0.1,0.1,0.2,0.2c0.5,0.4,1,0.9,1.5,1.4c0.5,0.5,1,0.9,1.5,1.4c2.8,2.6,5.1,4.7,6.9,8.2c1.7,3.2,2.6,6.9,2.9,10.5
		c0.1,1.1,0.1,2.2,0.1,3.3c0.1,0,0.3,0,0.5,0.1c1.4,0.2,4,0.6,6.5,1.8c2.5-1.2,5.1-1.6,6.5-1.8c0.2,0,0.4,0,0.5-0.1
		c0-1.1,0-2.2,0.1-3.4c0.3-3.6,1.3-7.3,3-10.5c1.8-3.5,4.2-5.6,6.9-8.2c0.5-0.5,1-0.9,1.5-1.4c0.5-0.4,1-0.9,1.5-1.4
		c0.1-0.1,0.2-0.1,0.2-0.2c0-0.1,0-0.1,0-0.3C42.3,9.4,42.1,9.1,41.9,8.9z M22.1,19.6c0.2,0,0.4,0.2,0.4,0.4s-0.2,0.4-0.4,0.4
		s-0.4-0.2-0.4-0.4S21.9,19.6,22.1,19.6z M15.5,21.4c-0.2,0-0.4-0.2-0.4-0.4s0.2-0.4,0.4-0.4s0.4,0.2,0.4,0.4S15.7,21.4,15.5,21.4z
		 M25.2,30.6c-0.6,0.1-1.5,0.1-2.9,0.1l0,0h-0.4l0,0c-1.4,0-2.3,0-2.9-0.1c-0.8-3.7-1.9-7.1-3-9c0,0,0,0,0,0c1,0.6,1.9,0.8,2.8,0.8
		c1.4,0,2.6-0.7,3.3-1.6c0.7,1,1.9,1.6,3.3,1.6c0.9,0,1.8-0.2,2.8-0.8c0,0,0,0,0,0C27.1,23.6,26.1,26.9,25.2,30.6z M28.7,21.3
		c-0.2,0-0.4-0.2-0.4-0.4s0.2-0.4,0.4-0.4s0.4,0.2,0.4,0.4S28.9,21.3,28.7,21.3z"/>
	<path class="st0" d="M25.3,30.7c-0.6,0.1-1.6,0.1-3.2,0.1h0c-1.6,0-2.6,0-3.2-0.1L15,34.9c0.1,0,0.3,0,0.5,0.1
		c1.4,0.2,4,0.6,6.5,1.8c2.5-1.2,5.1-1.6,6.5-1.8c0.2,0,0.4,0,0.5-0.1L25.3,30.7z"/>
	<path class="st2" d="M29.2,34.9c-0.1,0-0.3,0-0.5,0.1c-1.4,0.2-4,0.6-6.5,1.8c-2.5-1.2-5.1-1.6-6.5-1.8c-0.2,0-0.4,0-0.5-0.1
		l-0.4,0.2c0.8,0.2,4.2,0.3,7.4,1.8l0,0l0,0c3.2-1.5,6.6-1.6,7.4-1.8L29.2,34.9z"/>
	<path class="st3" d="M28.2,21.6c-1.3,2.5-2,5.2-2.9,9.1c-0.6,0.1-1.6,0.1-3.2,0.1h0c-1.6,0-2.6,0-3.2-0.1c-0.1-0.5-0.2-1-0.3-1.4
		c0-0.2-0.1-0.5-0.2-0.7c0-0.1,0-0.2-0.1-0.3c0-0.2-0.1-0.4-0.2-0.6c-0.1-0.5-0.3-1-0.4-1.5c-0.1-0.4-0.2-0.8-0.3-1.1
		c-0.1-0.2-0.1-0.4-0.2-0.5c-0.2-0.5-0.4-1-0.6-1.5c-0.1-0.2-0.2-0.5-0.3-0.7s-0.2-0.5-0.3-0.7c1.1,2,2.2,5.3,3,9
		c0.6,0.1,1.5,0.1,2.9,0.1h0.4c1.4,0,2.3,0,2.9-0.1C26.1,26.9,27.1,23.6,28.2,21.6z"/>
	<path class="st4" d="M42.3,9.8c0,0.1-0.1,0.1-0.2,0.2c-0.5,0.4-1,0.9-1.5,1.4c-0.5,0.5-1,0.9-1.5,1.4c-2.8,2.6-5.1,4.7-6.9,8.2
		c-1.7,3.2-2.6,6.9-3,10.5c-0.1,1.1-0.1,2.2-0.1,3.3c-0.1,0-0.3,0-0.5,0.1c-1.4,0.2-4,0.6-6.5,1.8c-2.5-1.2-5.1-1.6-6.5-1.8
		c-0.2,0-0.4,0-0.5-0.1c0-1.1,0-2.2-0.1-3.4C14.6,28,13.6,24.2,12,21c-1.9-3.5-4.2-5.6-6.9-8.2c-0.5-0.5-1-0.9-1.5-1.4
		c-0.5-0.4-1-0.9-1.5-1.4C2,10,1.9,9.9,1.9,9.8L1.8,9.9C1.8,10,1.9,10.1,2,10.2c1.7,1.7,3.5,3.3,5.2,5c1.8,1.8,3.4,3.7,4.6,5.9
		c2.1,4.2,2.9,9.3,2.9,14c0.8,0.2,4.2,0.3,7.4,1.8l0,0l0,0c3.2-1.5,6.6-1.6,7.4-1.8c0-4.7,0.8-9.8,2.9-14c1.1-2.3,2.8-4.2,4.5-5.9
		c1.7-1.7,3.5-3.3,5.2-5C42.3,10.1,42.4,10,42.3,9.8L42.3,9.8z"/>
</g>
<g>
	<ellipse class="st5" cx="110.8" cy="10.6" rx="60.4" ry="1.6"/>
	<path class="st5" d="M53.8,34.7c0,0-0.1,0.1-0.2,0.1H51c0,0-0.1,0-0.2-0.1c0,0-0.1-0.1-0.1-0.2V17.8c0,0,0-0.1,0.1-0.1
		c0,0,0.1-0.1,0.2-0.1h2.6c0.1,0,0.1,0,0.2,0.1s0.1,0.1,0.1,0.1l0,6l7.4-6.5c0.1-0.1,0.2-0.1,0.3,0l1.6,1.8c0.1,0.1,0.1,0.2,0,0.3
		l-5.5,4.8c-1,0.8-1,2.3,0,3.2l6,5.5c0.1,0.1,0.1,0.2,0,0.3L61.9,35c-0.1,0.1-0.2,0.1-0.3,0l-7.8-7.2v6.8
		C53.8,34.6,53.8,34.6,53.8,34.7z"/>
	<path class="st5" d="M81,30.1c0,0.8-0.2,1.5-0.4,2.1c-0.3,0.6-0.7,1.1-1.2,1.6c-0.5,0.4-1.1,0.8-1.8,1C76.8,34.9,76,35,75.2,35
		c-0.8,0-1.5-0.1-2.1-0.3s-1.2-0.5-1.7-0.9s-0.9-0.8-1.2-1.2c-0.3-0.5-0.6-0.9-0.8-1.4c-0.1-0.2,0-0.3,0.1-0.3l2.5-1
		c0.1,0,0.2,0.1,0.2,0.2c0.1,0.3,0.3,0.6,0.5,0.9c0.2,0.3,0.4,0.5,0.7,0.8c0.3,0.2,0.6,0.5,1,0.6c0.3,0.1,0.6,0.2,0.9,0.2
		c0.8,0,1.4-0.2,1.9-0.6s0.8-1,0.8-1.6c0-0.7-0.2-1.2-0.6-1.6c-0.4-0.4-0.9-0.8-1.5-1.1s-1.2-0.6-1.9-0.8c-0.7-0.2-1.3-0.6-1.9-1
		c-0.6-0.4-1.1-0.9-1.5-1.4c-0.4-0.6-0.6-1.3-0.6-2.2c0-0.8,0.2-1.4,0.4-2c0.3-0.6,0.7-1.1,1.2-1.5c0.5-0.4,1.1-0.7,1.7-1
		c0.6-0.2,1.3-0.3,1.9-0.3c0.6,0,1.1,0.1,1.7,0.2s1.1,0.3,1.5,0.5c0.5,0.2,0.9,0.6,1.3,1s0.7,0.9,1,1.5c0,0,0,0.1,0,0.2
		c0,0.1-0.1,0.1-0.1,0.2l-2.3,1c-0.1,0-0.2,0-0.3-0.1c-0.1-0.2-0.2-0.4-0.4-0.6c-0.2-0.2-0.4-0.4-0.6-0.6s-0.5-0.3-0.7-0.4
		s-0.6-0.1-0.9-0.1c-0.7,0-1.3,0.2-1.7,0.6S73,21.5,73,22c0,0.5,0.2,0.9,0.6,1.2c0.4,0.3,0.9,0.6,1.5,0.9c0.6,0.3,1.2,0.5,1.9,0.8
		c0.7,0.3,1.3,0.6,1.9,1c0.6,0.4,1.1,1,1.5,1.6C80.8,28.3,81,29.1,81,30.1z"/>
	<path class="st5" d="M90.9,34.7c-0.1,0-0.1,0.1-0.1,0.1h-2.7c-0.1,0-0.2-0.1-0.2-0.2v-10c0-2.4-1.9-4.3-4.3-4.3h-0.1
		c-0.1,0-0.1,0-0.1-0.1s-0.1-0.1-0.1-0.2v-2.2c0,0,0-0.1,0.1-0.1c0,0,0.1-0.1,0.2-0.1h11.6c0.1,0,0.1,0,0.2,0.1s0.1,0.1,0.1,0.1V20
		c0,0.1-0.1,0.2-0.2,0.2l0,0c-2.4,0-4.3,1.9-4.3,4.3v10C90.9,34.6,90.9,34.6,90.9,34.7z"/>
	<path class="st5" d="M98.5,30.6l-1.6,4.4c-0.1,0.1-0.2,0.2-0.3,0.1l-2.3-0.8c-0.1-0.1-0.2-0.2-0.1-0.4l5.9-15.7
		c0.1-0.3,0.3-0.5,0.6-0.6c0.3-0.1,0.6-0.2,1-0.2s0.7,0.1,1,0.2c0.3,0.1,0.5,0.3,0.6,0.6l5.9,15.7c0.1,0.2,0,0.3-0.1,0.4l-2.3,0.8
		c-0.2,0.1-0.3,0-0.3-0.1l-1.6-4.4C104.6,30.6,98.5,30.6,98.5,30.6z M103,26.3l-1.5-3.9l-1.5,3.9c-0.3,0.8,0.3,1.7,1.2,1.7h0.6
		C102.7,27.9,103.3,27.1,103,26.3z"/>
	<path class="st5" d="M126.3,26.2c0,1.3-0.2,2.5-0.7,3.5s-1.1,2-1.8,2.7c-0.8,0.7-1.7,1.3-2.8,1.7c-1.1,0.4-2.2,0.6-3.4,0.6h-4.9
		c-0.1,0-0.1,0-0.2-0.1c-0.1,0-0.1-0.1-0.1-0.2V17.8c0,0,0-0.1,0.1-0.1s0.1-0.1,0.2-0.1h4.9c1.2,0,2.3,0.2,3.4,0.6s2,1,2.8,1.7
		s1.4,1.6,1.8,2.7C126,23.7,126.3,24.9,126.3,26.2z M123.2,26.2c0-2-0.5-3.4-1.6-4.4c-1.1-1-2.6-1.5-4.4-1.5l0,0
		c-0.9,0-1.6,0.7-1.6,1.6v8.6c0,0.9,0.7,1.6,1.6,1.6l0,0c1.9,0,3.4-0.5,4.4-1.5C122.7,29.6,123.2,28.1,123.2,26.2z"/>
	<path class="st5" d="M132.1,34.7h-2.6c-0.1,0-0.2-0.1-0.2-0.2V17.8c0,0,0-0.1,0.1-0.1c0,0,0.1-0.1,0.1-0.1h2.6c0.1,0,0.1,0,0.2,0.1
		s0.1,0.1,0.1,0.1v16.7C132.3,34.7,132.2,34.7,132.1,34.7z"/>
	<path class="st5" d="M148.6,31.3c-0.3,0.8-0.8,1.4-1.4,1.9c-0.6,0.5-1.3,1-2.1,1.2c-0.8,0.3-1.6,0.4-2.6,0.4s-1.8-0.2-2.6-0.4
		c-0.8-0.3-1.5-0.7-2.1-1.2c-0.6-0.5-1-1.2-1.4-1.9c-0.3-0.8-0.5-1.6-0.5-2.5v-11c0,0,0-0.1,0.1-0.1s0.1-0.1,0.1-0.1h2.6
		c0.1,0,0.1,0,0.2,0.1s0.1,0.1,0.1,0.1v11c0,1.1,0.3,2,0.9,2.6c0.6,0.6,1.4,1,2.4,1c1,0,1.9-0.3,2.5-1c0.6-0.6,0.9-1.5,0.9-2.6v-11
		c0,0,0-0.1,0.1-0.1c0.1,0,0.1-0.1,0.1-0.1h2.6c0.1,0,0.1,0,0.2,0.1s0.1,0.1,0.1,0.1v11C149.1,29.7,148.9,30.6,148.6,31.3z"/>
	<path class="st5" d="M167.8,17.6c0.4-0.1,0.7-0.2,1.1-0.2s0.7,0.1,1,0.3s0.4,0.4,0.4,0.8v16c0,0.1,0,0.1-0.1,0.2s-0.1,0.1-0.1,0.1
		h-2.6c-0.2,0-0.2-0.1-0.2-0.2v-9.8l-4.2,9.4c-0.1,0.1-0.1,0.2-0.3,0.2h-2.5c-0.1,0-0.2-0.1-0.3-0.2l-4.2-9.4v9.8
		c0,0.1,0,0.1-0.1,0.2s-0.1,0.1-0.2,0.1H153c-0.1,0-0.1,0-0.1-0.1c-0.1,0-0.1-0.1-0.1-0.2v-16c0-0.3,0.1-0.6,0.4-0.8
		c0.3-0.2,0.6-0.3,1-0.3c0.4,0,0.8,0,1.1,0.2s0.6,0.4,0.8,0.6l1.4,3c1.6,3.5,6.6,3.5,8.1,0l1.4-3C167.1,17.9,167.4,17.7,167.8,17.6z
		"/>
</g>
<g>
	<g>
		<g>
			<path class="st3" d="M214.3,16.8c5,0,9,4,9,9c0,5-4,9-9,9h-24c-5,0-9-4-9-9c0-5,4-9,9-9H214.3 M214.3,15.8h-24
				c-5.5,0-10,4.5-10,10v0c0,5.5,4.5,10,10,10h24c5.5,0,10-4.5,10-10v0C224.3,20.2,219.8,15.8,214.3,15.8L214.3,15.8z"/>
		</g>
	</g>
	<g>
		<g>
			<g>
				<path class="st3" d="M189.5,29.5V21h2.5c0.9,0,1.6,0.2,2.1,0.6c0.5,0.4,0.7,0.9,0.7,1.7c0,0.4-0.1,0.8-0.4,1.2
					c-0.2,0.3-0.6,0.6-1,0.7c0.5,0.1,0.9,0.4,1.2,0.7c0.3,0.4,0.5,0.8,0.5,1.3c0,0.8-0.2,1.3-0.7,1.8c-0.5,0.4-1.2,0.6-2,0.6H189.5z
					 M190.2,24.8h2c0.6,0,1.1-0.2,1.4-0.4c0.3-0.3,0.5-0.7,0.5-1.2c0-0.5-0.2-1-0.5-1.2s-0.9-0.4-1.5-0.4h-1.8V24.8z M190.2,25.4
					v3.5h2.2c0.6,0,1.1-0.2,1.5-0.5s0.5-0.8,0.5-1.3c0-0.5-0.2-0.9-0.5-1.2c-0.3-0.3-0.8-0.5-1.4-0.5H190.2z"/>
			</g>
			<g>
				<path class="st3" d="M201.5,25.4h-4v3.5h4.6v0.6h-5.3V21h5.3v0.6h-4.6v3.2h4V25.4z"/>
			</g>
			<g>
				<path class="st3" d="M209.6,21.6h-2.9v7.9h-0.7v-7.9H203V21h6.6V21.6z"/>
			</g>
			<g>
				<path class="st3" d="M215.1,27.1h-3.9l-0.9,2.4h-0.8l3.2-8.5h0.7l3.2,8.5H216L215.1,27.1z M211.4,26.5h3.4l-1.7-4.6L211.4,26.5z
					"/>
			</g>
		</g>
	</g>
</g>
</svg>
